<svg class="main-svg" xmlns="http://www.w3.org/2000/svg" xmlns:xlink="http://www.w3.org/1999/xlink" width="700" height="500" style="" viewBox="0 0 700 500"><rect x="0" y="0" width="700" height="500" style="fill: rgb(255, 255, 255); fill-opacity: 1;"/><defs id="defs-656f96"><g class="clips"><clipPath id="clip656f96xyplot" class="plotclip"><rect width="485" height="320"/></clipPath><clipPath class="axesclip" id="clip656f96x"><rect x="80" y="0" width="485" height="500"/></clipPath><clipPath class="axesclip" id="clip656f96y"><rect x="0" y="100" width="700" height="320"/></clipPath><clipPath class="axesclip" id="clip656f96xy"><rect x="80" y="100" width="485" height="320"/></clipPath></g><g class="gradients"/></defs><g class="bglayer"><rect class="bg" x="80" y="100" width="485" height="320" style="fill: rgb(229, 236, 246); fill-opacity: 1; stroke-width: 0;"/></g><g class="layer-below"><g class="imagelayer"/><g class="shapelayer"/></g><g class="cartesianlayer"><g class="subplot xy"><g class="layer-subplot"><g class="shapelayer"/><g class="imagelayer"/></g><g class="gridlayer"><g class="x"><path class="xgrid crisp" transform="translate(96.78999999999999,0)" d="M0,100v320" style="stroke: rgb(255, 255, 255); stroke-opacity: 1; stroke-width: 1px;"/><path class="xgrid crisp" transform="translate(230.05,0)" d="M0,100v320" style="stroke: rgb(255, 255, 255); stroke-opacity: 1; stroke-width: 1px;"/><path class="xgrid crisp" transform="translate(363.48,0)" d="M0,100v320" style="stroke: rgb(255, 255, 255); stroke-opacity: 1; stroke-width: 1px;"/><path class="xgrid crisp" transform="translate(496.73,0)" d="M0,100v320" style="stroke: rgb(255, 255, 255); stroke-opacity: 1; stroke-width: 1px;"/></g><g class="y"><path class="ygrid crisp" transform="translate(0,408.01)" d="M80,0h485" style="stroke: rgb(255, 255, 255); stroke-opacity: 1; stroke-width: 1px;"/><path class="ygrid crisp" transform="translate(0,374.3)" d="M80,0h485" style="stroke: rgb(255, 255, 255); stroke-opacity: 1; stroke-width: 1px;"/><path class="ygrid crisp" transform="translate(0,329.73)" d="M80,0h485" style="stroke: rgb(255, 255, 255); stroke-opacity: 1; stroke-width: 1px;"/><path class="ygrid crisp" transform="translate(0,296.03)" d="M80,0h485" style="stroke: rgb(255, 255, 255); stroke-opacity: 1; stroke-width: 1px;"/><path class="ygrid crisp" transform="translate(0,262.32)" d="M80,0h485" style="stroke: rgb(255, 255, 255); stroke-opacity: 1; stroke-width: 1px;"/><path class="ygrid crisp" transform="translate(0,217.76)" d="M80,0h485" style="stroke: rgb(255, 255, 255); stroke-opacity: 1; stroke-width: 1px;"/><path class="ygrid crisp" transform="translate(0,184.05)" d="M80,0h485" style="stroke: rgb(255, 255, 255); stroke-opacity: 1; stroke-width: 1px;"/><path class="ygrid crisp" transform="translate(0,150.34)" d="M80,0h485" style="stroke: rgb(255, 255, 255); stroke-opacity: 1; stroke-width: 1px;"/><path class="ygrid crisp" transform="translate(0,105.78)" d="M80,0h485" style="stroke: rgb(255, 255, 255); stroke-opacity: 1; stroke-width: 1px;"/></g></g><g class="zerolinelayer"/><path class="xlines-below"/><path class="ylines-below"/><g class="overlines-below"/><g class="xaxislayer-below"/><g class="yaxislayer-below"/><g class="overaxes-below"/><g class="plot" transform="translate(80, 100)" clip-path="url('#clip656f96xyplot')"><g class="scatterlayer mlayer"><g class="trace scatter trace782e95" style="stroke-miterlimit: 2; opacity: 1;"><g class="fills"/><g class="errorbars"/><g class="lines"><path class="js-line" d="M0,297.68L0.18,296.98L0.37,304L1.28,297.92L1.46,297.52L2.37,293.32L2.56,294.06L2.74,290.69L2.92,292.37L3.1,290.63L3.29,287.47L4.2,274.13L4.38,279.32L4.56,280.78L5.11,276.09L5.29,274.93L5.48,275.27L5.84,274.56L6.02,274.16L6.94,255.48L7.12,249.78L7.3,256.92L7.67,248.76L7.85,246.05L9.67,208.47L9.86,210.26L10.59,199.33L10.77,192.81L10.95,189.02L11.32,195.07L11.5,194.64L11.86,189.68L12.05,195.8L12.23,209.41L12.41,214.08L12.6,204.4L12.78,200.25L12.96,197.64L13.14,203.01L13.33,200.55L13.51,201.7L13.69,203.99L13.87,202.86L14.06,216.69L14.24,216.67L14.42,224.77L14.6,213.86L15.15,217.15L15.33,215.39L15.52,216.24L15.7,213.23L15.88,209.5L16.43,209.83L16.61,210.4L17.71,197.47L17.89,197.89L18.07,203.6L18.25,203.31L18.44,204.07L18.62,201.57L18.8,200.26L18.98,202.62L19.17,203.15L19.53,202.57L19.9,204.8L20.08,204.6L20.26,202.14L21.17,204.82L21.36,203.47L21.54,201.85L21.72,205.06L21.9,204.92L22.09,204.92L22.82,203.59L23,204.06L23.18,204.26L24.82,222.65L25.01,217.58L25.19,216.51L25.37,219.98L25.56,218.11L25.92,219.29L26.1,225.48L26.47,219.1L26.65,223.13L26.83,229.62L27.2,223.1L27.75,224.21L27.93,223.56L28.11,215.78L28.66,216.88L28.84,219.88L29.02,219.97L29.21,217.91L29.39,218.81L30.12,218.64L30.3,218.27L30.85,219.52L31.03,220.79L31.76,224.47L31.94,223.08L32.13,223.15L32.31,223.32L32.49,228.8L33.22,233.28L33.4,231.7L33.59,237.31L34.13,233.53L34.5,234.56L34.68,234.81L35.05,243.78L35.23,236.15L35.41,237.81L35.59,239.5L35.78,234.29L35.96,228.1L36.14,227.6L36.32,230.63L36.51,232.81L36.69,228.98L36.87,229.24L37.05,229.96L38.15,237.44L38.33,236.78L38.52,235.42L38.7,234.37L39.06,235.73L39.25,236.14L39.61,238.37L39.79,237.25L39.98,235.67L40.16,236.06L40.34,234.96L40.52,234.89L40.71,236.59L41.25,235.4L41.44,235.6L42.17,234.25L42.35,230.73L42.53,230.7L42.71,227.61L42.9,228.55L43.08,226.54L43.26,222.55L43.44,222.39L43.63,223.15L43.81,224.02L44.17,219.9L44.36,217.87L44.54,218.11L44.72,216.21L44.9,218.67L45.45,217.08L45.63,216.78L46.18,217.58L46.36,218.3L46.91,223.34L47.09,221.76L47.28,221.5L47.46,220.03L47.82,221.35L48.01,222.35L48.19,220.9L48.55,222.13L48.74,222.86L48.92,223.21L49.1,222.31L49.28,221.06L49.65,221.07L49.83,217.19L51.11,219.18L51.29,219.22L51.66,219.52L51.84,218.16L52.75,219.69L52.94,219L54.03,219.46L54.21,220.63L55.31,223.83L55.49,222.23L55.67,221.37L55.86,222.39L56.22,222.32L56.4,222.31L56.59,222.21L56.77,221.21L58.05,228.63L58.23,230.96L58.41,228.14L58.59,230.77L58.78,234.22L59.14,227.92L59.69,229.58L59.87,229.41L60.42,228.33L60.6,229.15L60.97,229.54L61.15,232.28L61.88,231.15L62.25,231.53L62.43,232.37L62.61,232.89L62.98,231.78L63.16,232.37L63.34,232.59L63.71,232.23L63.89,232.63L64.07,233.31L64.98,240.7L65.17,240.65L65.35,237.32L67.54,253.29L67.72,248.89L67.9,250.5L68.09,246.89L68.27,244.56L68.63,246.12L68.82,244.23L69,241.47L69.18,241.03L69.36,241.5L69.55,243.56L69.91,241.7L70.09,242.86L70.28,243.07L70.46,242.71L70.64,243.52L70.82,246.83L71.01,246.58L71.19,247.75L71.37,246.95L71.74,247.23L71.92,249.13L72.1,247.98L72.28,248.78L72.47,250.65L72.83,250.73L73.38,247.53L73.56,247.81L73.74,248.05L74.47,235.72L74.66,241.94L74.84,241.21L75.21,240.53L75.94,247.28L76.12,246.75L76.67,242.93L77.03,244.01L77.21,244.51L78.13,242.77L78.31,243.55L79.59,248.34L79.77,247.32L80.13,247.45L80.32,247.27L80.5,248.7L81.05,253.54L81.41,251.15L81.59,251.43L81.96,249.64L82.14,251.23L82.32,251.66L82.51,251.31L82.69,252.05L82.87,252.11L83.05,252.36L83.24,253L83.42,251.87L83.78,252.8L83.97,258.31L84.15,259.56L84.51,257.27L84.7,256.14L85.79,269.85L85.97,275.94L86.16,269.53L86.7,271.4L86.89,271.57L87.07,271.4L87.25,267.36L87.44,268.29L87.62,267.2L87.8,263.13L87.98,257.31L88.35,262.02L88.53,266.26L89.08,270.4L89.26,267.54L89.44,265.91L89.63,268.39L89.81,268.23L89.99,269.71L90.36,268.41L90.72,269.62L90.9,269L91.09,269.94L91.27,268.79L91.45,265.91L91.63,262.25L91.82,267.47L92.18,264.84L92.36,266.02L92.73,264.29L92.91,264.4L93.09,266.42L94.55,259.56L94.74,258.26L94.92,259.83L95.47,258.5L95.65,258.28L95.83,255.53L96.38,255.69L96.56,257.48L96.74,257.4L96.93,256.12L97.11,256.14L97.29,257.29L97.47,262.97L98.02,261.65L98.2,260.14L98.39,260.56L98.57,264.1L99.48,264.4L99.67,263.98L99.85,264.76L100.21,263.05L100.4,262.78L100.58,263.05L100.76,261.47L102.4,269.46L102.59,268.35L102.77,267.94L102.95,268.93L103.13,268.91L103.32,268.8L103.5,268.57L103.68,266.35L104.23,267.73L104.41,269.67L104.59,269.84L104.78,268.05L104.96,268.49L105.14,268.35L105.32,266.11L105.51,266.69L105.69,266.2L105.87,265.36L106.42,267.41L106.6,266.03L106.78,264.49L107.7,266.34L107.88,265.92L108.06,266.11L109.16,266.28L109.34,265.4L110.62,266.22L110.8,266.8L111.89,268.73L112.08,268.39L112.26,268.85L112.44,267.88L112.63,267.67L113.72,265.96L113.9,263.69L114.09,263.98L114.27,263.62L114.45,265.27L115,264.01L115.18,264.75L115.36,265.24L115.91,263.37L116.09,263.56L116.28,261.84L116.46,261.22L116.82,262.38L117.01,262.7L118.65,253.78L118.83,256.07L119.93,258.94L120.11,258.03L120.29,258.83L120.66,258.59L120.84,256.64L121.2,256.03L121.39,255.7L121.75,256.46L121.93,256.78L122.3,258.16L122.66,257.33L122.85,257.2L123.58,261.21L123.94,260.63L124.12,259.66L125.4,267.42L126.13,267.24L126.32,268.09L126.5,273.53L127.05,268.74L127.23,267.3L128.32,268.11L128.51,267.57L129.24,264.56L129.42,265.84L129.6,265.32L129.97,266.44L130.15,267.68L130.88,266.82L131.24,267.22L131.43,267.34L131.61,267.97L131.79,267.22L131.97,267.27L132.16,266.71L133.8,265.63L133.98,265.67L134.35,264.13L134.89,264.43L135.08,264.41L135.99,262.34L136.17,260.15L136.54,260.61L136.9,259.61L137.09,260.16L138.73,250.3L139.09,250.59L139.28,244.44L139.64,236.58L139.82,245.77L140.01,243.38L140.19,242.1L140.74,252.72L141.1,248.79L141.28,249.34L141.47,249.36L141.65,251.43L141.83,248.81L142.2,249.35L142.38,252.11L142.74,250.48L143.11,251.29L143.29,251.69L144.39,243.36L144.57,246.79L145.85,238.05L146.03,238.79L146.21,238L146.39,232.97L146.94,234.46L147.12,235.31L147.67,233.35L147.85,233.76L148.04,236.44L148.4,236.17L148.58,234.15L148.95,235.12L149.13,238.29L150.05,236.8L150.23,236.64L150.96,237.39L151.14,235.84L151.32,234.09L151.87,234.83L152.05,235.23L152.78,244.02L153.33,242.73L153.51,243.24L153.7,238.51L154.24,242L154.43,240.84L155.16,244.49L155.7,244.1L155.89,244.06L156.25,244.32L156.43,242.2L157.16,244.06L157.35,243.76L157.53,243.19L157.71,243.26L157.89,241.96L159.35,235.99L159.72,236.09L159.9,238.23L160.81,236.14L161.18,236.62L161.36,238.3L161.54,238.03L161.73,239.66L161.91,240.84L162.28,238.89L162.46,239.3L164.1,238.54L164.28,239.69L166.11,237.8L166.29,238.84L167.2,238.38L167.39,237.98L167.93,238.03L168.12,238.71L169.58,237.02L169.76,237.15L169.94,237.24L171.4,233.15L171.58,235.81L171.95,234.39L172.31,234.53L172.5,235.55L173.77,233.69L173.96,234.39L174.14,234.73L174.69,234.2L174.87,234.04L176.15,235.89L176.33,235.46L176.7,235.05L176.88,233.03L177.97,226.12L178.16,226.25L178.89,222.07L179.07,222.83L179.25,222.48L179.43,222.94L179.62,222.19L179.8,218.25L180.71,208.53L180.89,210.91L181.08,210.16L181.26,209.44L181.44,213.18L181.81,222.41L181.99,216.45L182.17,214.27L182.9,218.16L183.08,218.1L183.27,214.55L183.63,214.06L184.36,215.37L184.54,217.69L185.46,215.98L185.64,216.68L186.37,214.69L186.74,215.28L186.92,216.08L187.1,215.74L187.28,216.62L187.65,216.21L187.83,216.57L188.74,218.07L188.93,219.17L189.29,224.58L189.84,222.95L190.02,221.81L190.75,221.29L190.93,222.35L191.12,222.11L191.3,222.38L191.48,223.2L191.66,223.57L191.85,222.89L192.21,223.11L192.39,223.1L192.94,222.06L193.12,222.69L193.31,222.97L194.95,223.15L195.13,221.16L196.04,218.99L196.23,219.23L196.41,219.11L197.32,220.42L197.5,220.38L198.05,220.33L198.23,221.2L199.88,220.5L200.06,220.02L200.97,220.02L201.16,220.05L202.62,217.81L202.8,217.84L203.89,218.45L204.08,216.91L204.26,217.15L204.62,216.45L204.81,214.47L204.99,214.47L205.17,213.36L205.54,213.8L205.9,211.62L206.08,210.55L206.27,213.29L206.81,212.99L207,212.95L207.18,211.44L207.73,212.29L207.91,213.74L209.19,209.85L209.37,211.31L209.73,210.28L209.92,210.68L210.1,211.31L210.28,210.84L210.46,211.5L210.83,211.26L211.01,211.22L211.56,208.74L211.93,209.37L212.11,209.7L214.48,207.43L214.66,207.54L215.21,200.56L215.39,200.6L215.58,202.79L216.31,197.42L216.67,198.39L216.85,197.79L217.58,189.64L217.77,196.71L217.95,204.63L218.5,200.87L218.68,200.58L218.86,208.57L219.41,205.61L219.59,205.04L220.69,199.31L220.87,200.06L221.05,200.49L221.23,201.23L221.6,200.46L221.78,200.09L222.33,200.01L222.51,197.35L223.97,192.64L224.16,197.26L225.25,195.14L225.43,194.17L226.71,187.42L226.89,187.88L227.08,189.66L228.17,183.82L228.35,184.76L228.72,184.01L228.9,186.9L229.45,189.33L229.63,187.72L229.81,185.74L230.36,185.26L230.54,190.25L230.91,196.01L231.27,192.94L231.46,191.78L232,199.99L232.37,197.59L232.55,194.34L232.73,195.45L233.1,193.71L233.28,192.39L233.46,192.18L233.65,189.65L235.29,186.08L235.47,186.5L235.65,187.68L236.2,187.8L236.39,186.69L236.93,184.72L237.12,184.97L237.3,185.85L238.76,180.69L238.94,179.09L240.77,168.13L240.95,172.13L242.04,164.48L242.23,162.71L243.14,149.9L243.32,152.23L243.5,156.97L243.69,156.92L243.87,157.77L244.23,158.33L245.51,144.23L245.69,147.04L246.42,142.48L246.61,147.77L246.79,146.3L246.97,151.11L247.15,152.67L247.34,151.06L247.52,148.08L247.7,149.34L247.88,148.31L248.07,145.86L249.16,151.2L249.35,150.38L249.53,149.72L249.71,150.55L249.89,151.87L250.08,152.95L250.26,151.2L250.44,148.81L251.9,155.67L252.08,152.69L252.81,162.63L253,157.92L253.18,154.37L253.36,154.49L253.54,147L253.73,147.03L253.91,145.41L254.46,150.69L254.64,150.12L254.82,147.73L255.37,147.39L255.55,144.79L255.92,147.01L256.1,145.75L256.28,140.64L258.11,123.28L258.29,127.18L258.47,124.84L259.02,126.94L259.2,127.28L259.38,129.7L259.75,126.48L259.93,124.02L260.48,124.63L260.66,123.5L261.39,119.09L261.58,121.05L261.76,121.88L261.94,126.69L262.49,121.51L262.67,125.31L263.04,125L263.58,130.88L263.77,137.11L264.5,128.9L264.68,130.3L264.86,130.75L265.23,133.57L265.59,131.7L265.77,129.58L265.96,129.35L266.14,126L266.32,127.86L266.69,125.08L266.87,123.82L267.05,123.7L267.23,125L267.42,126.39L267.78,124.3L267.96,123.46L269.24,110.71L269.42,112.18L269.61,111.87L269.79,113.16L270.15,111.5L270.34,108.1L271.07,112.67L271.25,110.73L271.43,109.51L271.61,111.07L271.8,111.03L271.98,107.68L272.16,107.84L272.34,105.56L273.07,98.84L273.26,99.81L273.44,100.54L273.62,98.98L273.99,99.68L274.17,102.99L274.54,109.14L274.72,103.77L274.9,102.32L275.81,95.17L276,95.64L276.18,93.99L276.54,94.33L276.73,93.75L276.91,89.98L278,79.75L278.19,79.53L278.92,68.61L279.1,59.98L279.46,70.72L279.65,60.29L280.01,59.17L280.19,60.45L280.74,52.41L281.11,52.87L281.29,58.64L281.47,58.46L281.65,67.05L281.84,65.33L282.02,67.33L282.2,69.86L282.57,61.66L282.93,64.76L283.11,68.94L283.3,71.05L283.66,70.04L283.84,64.71L284.03,63.99L284.21,64.48L284.39,59.47L284.57,59L284.76,62.32L285.3,70.29L285.49,68.97L285.67,67.11L285.85,66.93L286.04,69.38L286.4,79.99L286.77,78.81L286.95,76.23L287.13,73.25L287.31,77.21L287.5,79.98L287.68,80.16L287.86,76.71L288.23,79.39L288.41,77.45L288.59,77.62L288.77,79.78L290.05,106.27L290.23,99.55L290.42,94.98L290.6,94.37L290.78,89.55L290.96,94.62L291.51,90.86L291.69,85.73L292.61,77.61L292.79,79.73L292.97,80.63L293.52,86.11L293.7,85.89L293.88,82.74L294.98,77L295.16,78.33L296.07,90.93L296.26,86.88L296.44,88.91L296.62,87.78L296.8,95.53L297.17,93.66L297.35,96.96L297.9,89.02L298.45,89.81L298.63,91.67L299.36,95.72L299.54,102.36L300.46,99.38L300.64,103.02L301,102.41L301.19,101.64L301.37,100.53L301.55,102.88L301.92,101.8L302.1,95.98L302.65,93.93L302.83,94.71L303.01,95.28L304.29,87.19L304.47,90.22L305.02,86.83L305.2,87.74L305.38,89.44L305.75,87.95L305.93,86.17L306.3,84.8L306.48,87.44L306.66,86.93L307.76,92.53L307.94,90.75L308.49,94.92L308.67,93.48L308.85,93.4L309.03,91.99L309.22,92.97L309.4,95.19L310.49,100.58L310.68,98.09L310.86,98.37L311.04,97.92L311.23,97.2L311.41,96.65L311.59,98L311.77,97.24L312.87,102.94L313.23,106.35L313.78,104.78L313.96,105.12L314.51,103.26L314.69,103.31L314.88,108.09L315.42,106.95L315.61,107.7L315.79,107.77L315.97,109.26L316.34,106.18L316.52,105.95L316.7,104.03L317.25,104.71L317.61,104.47L317.8,103.2L317.98,103.56L318.16,106.02L318.34,106.05L318.53,107.73L319.07,106.01L319.26,103.73L319.8,98.14L320.17,98.53L320.35,98.62L320.72,92.96L321.26,93.38L321.45,93.79L321.81,93.9L321.99,96.75L323.09,98.67L323.27,103.17L323.82,108.14L324.19,106.22L324.37,106.82L324.55,107.9L324.73,106.26L324.92,106.72L325.1,104.5L325.65,106.52L326.01,106.09L326.19,104.97L327.11,100.81L327.29,100.98L327.47,101.82L328.38,98.94L328.57,102L329.11,107.44L329.48,106.71L329.66,106.7L331.85,106.6L332.03,105.24L332.22,105.82L332.4,104.92L332.58,103.53L332.76,104.98L333.31,104.23L333.49,104.43L333.68,105.14L334.04,104.03L334.22,104.29L334.41,104.31L334.77,103.79L334.95,104.11L335.14,106.63L335.68,106.04L335.87,103.37L336.05,103.34L336.23,105.41L337.15,105.77L337.33,105.78L338.24,105.52L338.42,106.78L339.88,105.55L340.07,104.89L341.16,106.65L341.34,112.9L341.71,113.58L341.89,113.14L342.07,112.65L343.17,132.02L343.35,129.2L343.53,133.19L343.9,126.53L344.08,126.02L345.18,132.22L345.36,134.03L346.27,137.07L346.45,136.3L347,139.54L347.18,139.45L347.37,135.4L347.91,127.81L348.28,130.31L348.46,129.22L348.65,127.95L348.83,131.52L349.01,131.01L349.19,133.9L349.38,130.27L349.92,132.54L350.11,132.19L350.29,130.06L350.47,131.16L350.84,130.97L351.02,128.44L351.57,128.66L351.75,133.5L352.11,133.58L352.3,135.13L352.48,133L353.03,133.41L353.21,133.65L353.39,132.52L353.76,134.71L353.94,133.98L355.22,136.58L355.58,136.22L355.76,135.94L356.86,137.08L357.04,133.85L357.41,133.45L357.77,134.01L357.95,134.14L358.32,134.19L358.5,133.78L358.68,133.65L359.78,127.35L359.96,131.57L360.88,130.95L361.06,131.05L361.42,132.53L361.61,130.69L362.52,129.84L362.88,130.26L363.07,130.51L363.43,129.94L363.61,128.78L363.98,128.92L364.16,128.66L364.34,128.27L365.44,129.65L365.62,128.38L365.8,128.51L365.99,127.64L366.53,126.99L366.72,119.55L367.63,115.86L367.81,115.29L368.18,115.07L368.36,117.28L368.72,117.11L368.91,116.24L369.09,117.31L369.45,115.65L369.64,115.14L370.18,115.14L370.37,114.03L370.55,112.66L370.73,113.72L370.91,116.49L372.01,114.94L372.19,113.96L373.11,109.71L373.29,109.44L374.57,93.83L374.75,96L374.93,99.73L375.11,99.38L375.3,93.57L375.84,96.61L376.03,95.49L376.21,94.66L376.39,94.36L376.57,91.08L376.76,90.26L377.12,90.97L377.3,93.18L377.85,90.57L378.03,92.1L378.22,97.1L378.76,94.71L378.95,95.21L379.13,97.39L380.59,87.33L380.77,89.1L382.23,73.41L382.41,79.03L382.6,73.91L382.96,79.71L383.14,81.88L383.51,75.41L383.69,76.64L383.87,79.65L384.6,72.9L384.79,74.96L384.97,78L385.15,75.98L385.33,78.19L385.52,81.64L385.7,79.7L385.88,86.59L386.61,79.49L386.8,81.44L386.98,82.68L387.89,86.85L388.26,86.51L388.44,86.17L389.9,75.36L390.08,75.92L390.26,75.88L390.45,78.2L390.63,77.31L390.81,77.71L390.99,79.99L391.72,83.03L391.91,82.44L392.27,80.22L392.45,83.73L392.64,83.27L392.82,82.31L393.18,83.71L393.37,82.55L393.55,83.46L393.91,86.6L394.46,85.12L394.64,82.22L394.83,80.8L395.19,81.32L395.37,82.45L395.56,81.7L395.92,82.45L396.1,83.64L396.47,82.15L397.02,82.6L397.2,82.6L398.48,85.43L398.66,90.88L399.57,94.38L399.76,93.45L399.94,92.91L400.3,93.67L400.49,93.91L400.67,94.07L400.85,95.8L401.58,91.48L401.76,92.99L401.95,92.94L402.13,93.21L402.31,92.89L402.68,94.87L403.22,95.24L403.59,93.7L403.77,94.45L403.95,98.56L404.14,98.29L404.32,91.43L404.68,86.14L405.23,87.96L405.41,88.46L406.51,87.39L406.69,87.96L407.42,90.75L407.6,90.48L407.79,90.54L409.06,94.45L409.25,97.31L409.79,101.1L410.16,100.42L410.34,97.88L410.71,96.57L411.26,99.13L411.44,99.25L411.62,99.93L411.8,98.7L411.99,97.96L412.35,97.71L412.53,99.13L413.81,102.21L413.99,104.37L414.18,98.53L414.72,99.44L414.91,99.77L415.64,100.13L415.82,99.84L416.18,98.79L416.37,99.68L416.55,100.16L416.73,100.19L416.91,101.7L418.01,94.49L418.19,96.07L419.29,90.02L419.47,90.75L419.65,89.58L419.83,89.5L420.02,91.17L420.38,90.77L420.56,91.18L420.75,92.62L421.11,92.83L421.29,91.59L421.48,89.81L422.02,86.31L422.57,87.13L422.75,87.73L422.94,88.22L423.12,85.9L423.85,83.4L424.03,84.84L424.76,82.29L424.95,84.41L425.31,85.85L425.49,83.13L425.86,85.87L426.22,85.58L426.41,84.44L427.68,91.67L427.87,89.59L428.23,90.5L428.41,88.75L428.6,88.49L429.14,95.66L429.51,95.17L429.69,110.54L430.42,118.3L430.6,113.43L430.79,114.34L430.97,106.51L431.52,109.84L431.7,105.33L431.88,102.91L432.43,103.65L432.61,107.06L432.79,109.52L432.98,105.12L433.16,105.4L433.34,104.72L434.25,99.5L434.44,100.19L434.62,98.9L434.8,99.21L434.98,102.33L435.17,102.28L435.35,101.09L435.9,103.39L436.08,100.25L436.45,99.5L436.81,102.4L436.99,102.06L437.18,100.58L438.09,96.28L438.27,96.37L439,89.37L439.18,89.69L439.37,89.78L439.73,87.2L439.91,84.53L440.1,84.45L440.28,85.94L440.64,91.33L441.01,87.41L441.19,85.24L441.37,87.25L441.92,85.41L442.1,85.43L443.38,90.07L443.56,88.56L444.48,82.76L444.66,86.46L445.75,85.07L445.94,85.1L446.12,84.66L446.3,87.78L447.21,86.49L447.4,86.76L448.13,87.63L448.31,85.62L449.22,89.05L449.59,88.16L449.77,88.37L449.95,87.91L450.14,88.64L450.5,88.5L450.68,88.87L451.23,86.69L451.6,87.87L451.78,87.94L452.33,87.78L452.51,88.04L452.69,88.45L453.42,88.25L453.6,87.08L454.52,84.34L454.7,78.59L454.88,79.68L455.06,78.17L455.25,78.89L455.43,77.79L455.61,76.13L455.79,78.8L455.98,78.27L456.16,78.41L456.52,76.01L457.07,76.52L457.25,75.86L457.44,77.93L457.98,76.07L458.17,75.6L458.35,75.6L458.53,73.59L459.26,76.9L459.63,76.55L459.81,76.23L460.36,78.09L460.54,77.32L460.72,77.19L461.27,75.32L461.45,77.56L462.55,83.84L462.73,82.76L463.64,80.85L463.83,80.17L464.56,79.2L464.74,80.07L465.29,82.8L465.47,80.88L465.65,80.62L466.56,80.57L466.75,81.09L467.11,81.42L467.29,80.93L467.48,80.5L467.66,81.26L468.02,79.87L468.21,79.18L468.75,76.55L469.12,77.69L469.3,77.23L469.67,77.85L469.85,77.37L470.03,76.09L470.21,75.44L470.4,70.9L470.76,71.53L470.94,70.98L471.13,71.26L471.31,71.16L472.22,68.06L472.4,68.63L472.59,68.97L472.77,68.27L472.95,67.12L473.32,62.61L473.87,63.42L474.05,63.13L475.87,53.83L476.06,53.89L476.24,53.79L476.42,54.21L476.6,52.71L476.79,53.48L476.97,57.71L477.15,58.17L477.33,55.96L478.25,51.66L478.43,53.31L478.98,52.56L479.16,53.65L479.71,55.09L479.89,53.13L480.44,51.71L480.62,47.25L481.17,41.69L481.53,43.17L481.71,42.63L481.9,43.07L482.08,42.24L482.26,40.31L483.36,32.08L483.54,31.71L484.82,16L485,16.31" style="vector-effect: non-scaling-stroke; fill: none; stroke: rgb(99, 110, 250); stroke-opacity: 1; stroke-width: 2px; opacity: 1;"/></g><g class="points"/><g class="text"/></g><g class="trace scatter trace74cf07" style="stroke-miterlimit: 2; opacity: 1;"><g class="fills"/><g class="errorbars"/><g class="lines"><path class="js-line" d="M0,6720L1.457209357689023,6720L1.46,298.27L1.64,297.9L2.74,294.24L2.92,293.37L4.02,282.59L4.2,279.89L5.48,276.74L5.66,275.71L6.57,270.42L6.75,267.65L10.4,207.22L10.59,205.3L11.68,192.51L11.86,192.66L12.05,193.52L12.96,204.79L13.14,203.56L13.33,201.11L13.51,200.6L13.69,201.33L13.87,202.41L15.15,218.65L15.33,216.86L15.52,217.36L17.52,206.56L17.71,204.18L18.25,200.92L18.62,202.03L18.8,202.54L19.35,202.25L19.53,202.45L19.71,203.29L20.08,204.01L20.44,203.69L20.63,203.33L20.99,203L21.17,203.53L21.36,203.71L22.09,204.03L22.27,204.22L22.45,204.68L22.82,204.13L23,203.96L23.36,204.44L23.55,205.69L25.37,218.75L25.56,218.92L25.74,218.3L25.92,218.64L26.1,220.38L27.56,225.21L27.75,224.17L28.11,222.3L28.29,220.76L28.84,216.94L29.21,218.12L29.39,218.68L29.57,218.95L29.94,218.26L30.12,218.4L30.67,218.57L30.85,218.87L31.76,222.97L31.94,223.45L32.49,224.52L32.67,225.54L34.32,235.21L34.5,234.67L34.68,234.3L34.86,234.88L35.05,236.81L35.59,238.86L35.78,238.2L35.96,235.01L36.69,229.59L37.05,230.31L37.24,230.37L37.42,230.02L37.6,230.78L37.79,231.91L38.52,235.84L39.06,235.35L39.25,235.22L40.16,236.81L40.34,236.45L40.52,235.76L42.17,235.2L42.35,234.19L45.82,216.99L46,216.98L46.55,218.4L46.73,219.39L47.28,222.09L47.64,221.46L47.82,221.07L49.47,222.07L49.65,221.72L50.56,217.73L50.93,218.08L51.11,218.4L52.21,218.94L52.39,218.98L54.03,219.29L54.21,219.6L56.04,222.36L56.22,222.07L57.5,222.14L57.68,222.65L58.96,231.27L59.51,230.45L59.69,229.56L60.6,228.92L60.78,228.9L61.15,229.7L61.33,230.41L62.43,231.77L62.61,231.91L64.44,234.09L64.62,235.49L65.17,239.63L65.71,239.32L65.9,239.22L66.08,239.23L66.26,240.43L68.09,249.68L68.27,248.73L68.45,247.29L69.91,242.2L70.09,242.57L70.28,242.89L70.64,242.77L70.82,243.78L73.01,249.88L73.2,249.93L74.47,243.37L74.66,242.2L75.21,240.5L75.39,241.91L75.57,242.24L76.48,245.66L76.85,244.81L77.03,244.27L78.31,243.35L78.49,243.57L79.22,244.47L79.4,244.98L81.59,251.9L81.78,251.55L82.51,250.79L82.69,251.17L84.15,254.85L84.33,256.35L84.7,258.11L85.24,257.25L85.43,257.8L86.7,272.81L87.07,272.35L87.25,271.35L88.53,262.02L88.71,262.72L88.9,264.94L89.81,268.07L89.99,267.94L91.27,269.28L91.45,268.63L92.36,265.34L92.55,265.96L92.91,264.95L93.46,265.3L93.64,265.71L94.37,263.49L94.55,262.14L96.38,256.29L96.56,256.14L97.84,259.7L98.02,260.83L99.48,264.13L99.67,264.07L99.85,264.19L100.4,263.72L100.58,263.53L101.13,262.64L101.31,263L101.49,263.43L103.13,268.72L103.32,268.59L103.68,268.3L103.86,267.84L104.23,267.21L104.41,267.42L104.59,268.11L105.14,268.88L105.32,268.15L105.51,267.53L106.97,265.87L107.15,265.71L107.51,265.15L107.88,265.68L108.06,265.79L109.34,266.4L109.52,266.13L109.7,265.8L110.62,266.01L110.8,266.18L112.44,268.53L112.63,268.3L114.09,265.38L114.27,264.74L115,264.38L115.18,264.61L115.36,264.6L116.09,264.41L116.28,263.73L117.55,261.22L117.74,260.89L119.2,255.46L119.38,256.26L119.56,257.16L120.66,258.59L120.84,258.13L121.93,256.14L122.12,256.43L122.3,256.92L124.49,260.56L124.67,260.55L125.22,261.42L125.4,262.62L127.05,269.71L127.23,269.54L127.96,267.75L128.14,267.86L128.32,268.01L128.87,266.84L129.05,266.27L129.78,265.24L129.97,265.52L130.15,266.14L131.43,267.19L131.61,267.26L132.52,266.85L132.7,266.61L133.98,265.81L134.16,265.67L136.72,260.68L136.9,260.14L137.45,259.45L137.63,258.67L138.55,254.46L138.73,253.08L139.28,249.62L139.46,246.61L140.19,240.79L140.37,242.32L140.55,243.79L141.47,250.31L142.01,249.67L142.2,249.67L143.11,251.22L143.29,251.14L143.47,250.81L146.21,239.49L146.39,237.71L147.85,234.26L148.04,234.48L149.86,237.62L150.23,237.19L150.41,236.98L151.32,236.16L151.51,235.7L152.05,234.82L152.24,235.39L152.42,235.85L153.15,240.97L153.33,242.18L153.51,243.13L153.88,241.49L154.06,241.31L154.43,240.7L154.61,241.36L154.79,241.63L155.52,243.13L155.7,243.65L156.25,243.96L156.43,243.73L156.62,243.58L158.08,242.61L158.26,241.83L160.08,236.91L160.27,237.33L160.45,237.39L160.63,237.69L161,236.96L161.18,236.67L162.64,239.58L162.82,239.14L163.01,238.95L165.2,239.03L165.38,238.9L166.66,238.38L166.84,238.51L167.75,238.16L167.93,238.1L169.03,237.8L169.21,237.61L170.85,235.32L171.04,234.83L171.4,233.97L171.95,234.38L172.13,234.71L173.04,235.05L173.23,234.92L173.96,233.94L174.32,234.24L174.51,234.29L176.7,235.44L176.88,234.91L179.25,222.51L179.43,222.59L179.62,222.5L180.35,216.53L180.53,214.38L181.26,210.03L181.44,210.42L181.62,211.96L182.54,217.32L182.72,216.21L182.9,216.55L183.08,217.33L183.45,216.42L183.63,215.92L184,214.75L184.36,214.94L184.54,215.66L185.27,216.98L185.64,216.65L185.82,216.44L187.1,215.4L187.28,215.79L187.47,216.07L189.11,218.18L189.29,219.73L190.02,223.05L190.39,222.35L190.57,222.1L191.3,222.04L191.48,222.26L192.39,223.16L192.58,222.93L193.85,222.99L194.04,223.05L195.13,222.76L195.31,222.21L196.41,219.44L196.77,219.62L196.96,219.88L198.6,220.82L198.78,220.93L199.7,220.68L199.88,220.63L201.7,219.77L201.89,219.64L203.35,217.95L203.53,218.14L204.26,217.96L204.44,217.56L206.63,212.32L206.81,212.6L207,213.09L207.36,212.48L207.54,212.36L207.91,212.37L208.09,212.7L208.27,212.8L208.64,212.44L208.82,211.85L209.73,210.5L209.92,210.62L210.1,210.92L211.56,210.1L211.74,209.67L212.84,209.16L213.02,209.02L215.03,206.66L215.21,205.21L216.85,198.09L217.04,197.47L217.77,194.01L217.95,195.64L219.59,206.51L219.77,205.6L219.96,204.37L221.23,200.22L221.42,200.43L221.6,200.67L222.33,200.17L222.51,199.53L223.97,193.95L224.34,194.67L224.52,194.9L224.89,196.26L225.25,195.77L225.43,195.44L227.99,186.65L228.17,185.88L228.72,184.25L228.9,184.74L229.08,185.77L229.63,188.03L230,187.05L230.18,186.69L230.36,185.89L230.54,186.37L230.73,187.77L232,194.79L232.19,195.78L232.73,197.01L232.92,195.84L233.1,195.01L235.11,187.31L235.29,186.91L236.02,187.11L236.2,187.46L236.75,186.9L236.93,186.32L239.31,179.28L239.49,177.71L241.31,169.2L241.5,169.67L241.68,169.84L242.77,160.96L242.96,158.94L243.69,154.03L243.87,154.66L244.05,155.78L244.23,157.02L244.6,155.26L244.78,154.1L246.42,144.83L246.79,145.12L246.97,146.26L247.7,150.43L247.88,149.86L248.07,148.5L248.61,147.08L248.98,147.96L249.16,148.65L250.26,151.25L250.44,151.06L250.62,150.9L251.17,149.65L251.54,150.09L251.72,151.17L253,159.17L253.36,158.01L253.54,155.01L254.27,146.47L254.64,147.78L254.82,148.26L255.19,148.65L255.37,148L255.55,146.93L256.1,146.38L256.28,144.98L258.84,125.33L259.2,126.08L259.38,127.04L259.75,127.4L259.93,126.79L260.11,126.21L261.58,120.43L261.76,120.58L261.94,121.65L263.58,127.27L263.77,129.28L264.31,132.87L264.68,131.14L264.86,131L265.04,130.79L265.23,131.18L265.41,131.7L265.59,131.99L265.77,131.74L265.96,131.1L267.23,124.74L267.42,124.79L267.6,124.73L267.96,124.78L268.15,124.08L270.34,111.3L270.52,110.78L270.88,109.95L271.25,110.71L271.43,110.76L271.61,111.15L271.8,110.99L271.98,109.99L272.53,106.78L272.71,104.57L273.81,99.44L273.99,99.61L274.17,100.23L274.9,105.22L275.08,104.49L275.27,101.83L276.54,94.55L276.73,94.27L278.73,77.58L278.92,75.25L280.19,61.95L280.38,59.5L281.11,54.68L281.47,55.15L281.65,57.9L282.38,66.98L282.93,65.56L283.11,65.39L283.84,68.83L284.03,67.8L284.21,66.5L284.94,61.71L285.12,62.23L285.3,64.33L287.13,77.18L287.31,76.65L288.23,78.65L288.41,78.15L288.59,77.65L289.14,80.6L289.32,83.15L290.6,97.63L290.78,96.62L290.96,94.51L292.97,79.89L293.34,80.94L293.52,82.64L293.88,84.33L294.25,83.33L294.43,81.9L295.16,78.2L295.34,78.52L295.53,80.06L297.53,94.9L297.72,94.05L298.45,90.33L298.81,91.05L299,92.38L299.54,96.29L299.73,98.15L300.27,101.49L300.82,101.39L301,101.57L301.73,102.01L301.92,101.89L302.1,100.7L304.29,89.03L304.47,89.09L305.75,88.18L305.93,88.05L306.66,86.04L306.84,86.59L307.03,87.09L308.85,93.69L309.03,93.3L309.58,94.13L309.76,94.92L310.86,99.03L311.04,98.74L311.23,98.42L311.77,97.4L312.87,98.35L313.96,105.25L314.15,104.66L314.33,104.47L314.69,103.68L314.88,104.24L315.06,105L315.97,107.88L316.34,107.65L316.52,107.29L317.98,104.05L318.16,104.38L319.07,106.53L319.26,106.06L319.44,104.62L321.08,95.31L321.26,94.29L321.45,93.74L321.99,94.28L322.18,95.09L324.55,106.97L324.92,106.78L325.1,106.43L326.92,103.74L327.11,102.9L328.38,99.85L328.57,100L328.75,100.99L329.84,106.88L330.21,106.67L330.39,106.67L332.22,106.12L332.4,105.82L333.31,104.21L333.49,104.39L333.68,104.42L335.14,104.52L335.32,104.94L335.68,105.89L336.05,105.07L336.23,104.87L336.78,105.26L336.96,105.73L339.7,105.98L339.88,105.85L340.8,105.8L340.98,106.09L341.34,107.57L341.53,108.93L343.9,130.37L344.26,129.15L344.45,127.84L344.63,127.07L344.99,128.64L345.18,129.23L346.82,137.46L347,138.12L347.18,138.6L347.55,137.52L347.73,136.09L348.65,129.2L348.83,129.94L349.01,129.99L350.11,131.97L350.29,131.77L351.57,129.09L351.75,129.57L351.93,130.59L353.03,133.9L353.21,133.61L353.94,133.86L354.12,134.02L355.95,136.14L356.13,136.11L356.86,136.61L357.04,136.08L357.22,135.5L357.95,133.78L358.32,134.09L358.5,134.08L358.87,133.21L359.05,132.3L359.78,129.2L360.14,129.81L360.33,130.04L361.42,131.39L361.61,131.31L364.16,129.05L364.34,128.72L365.99,128.76L366.17,128.36L366.72,125.75L366.9,123.46L368.36,115.9L368.54,116.13L369.09,116.99L369.45,116.46L369.64,116.06L370.73,114.1L371.1,114.61L371.28,114.98L371.64,116.25L372.01,115.7L372.19,115.32L374.2,101.81L374.38,99.39L374.93,96.03L375.3,96.43L375.48,96.76L376.39,95.24L376.57,94.4L377.3,91.23L377.67,91.63L377.85,91.6L378.4,93.41L378.58,94.43L379.13,96L379.49,95.59L379.68,95.44L380.22,92.74L380.41,91.41L382.78,75.56L382.96,76.16L383.14,77.83L383.87,78.72L384.06,78.06L384.24,77.52L385.15,75.1L385.33,75.97L385.52,77.7L386.43,82.87L386.61,82.82L386.8,81.82L386.98,81.31L387.34,82.5L387.53,83.53L388.44,86.21L388.62,86.01L388.8,85.06L390.26,76.23L390.63,76.52L390.81,77L391.91,82.58L392.45,81.95L392.64,81.99L393,82.53L393.18,83.24L393.55,83.05L393.73,83.64L393.91,84.3L394.46,85.8L394.64,85.16L394.83,83.98L395.56,81.53L395.92,82.01L396.1,82.47L397.38,82.62L397.56,82.75L398.48,83.95L398.66,85.46L399.76,93.97L400.12,93.6L400.3,93.53L400.67,93.56L400.85,94.14L401.4,93.7L401.58,93.17L402.13,92.43L402.31,92.7L402.68,93.37L404.14,95.69L404.32,95.21L404.5,94.03L405.23,87.17L405.78,87.78L405.96,88.05L406.69,87.62L406.87,88.05L407.06,88.65L408.88,92.72L409.06,93.22L410.16,100.08L410.53,99.61L410.71,98.69L411.07,97.95L411.44,98.29L411.62,98.97L411.99,98.99L412.17,98.73L412.35,98.42L412.72,98.47L412.9,98.88L413.08,99.34L413.99,101.52L414.54,101.14L414.72,100.59L414.91,99.71L415.45,99.84L415.64,99.97L417.46,99.88L417.64,99.16L419.1,93.5L419.29,92.61L419.83,90.09L420.38,90.41L420.56,90.74L421.29,92.09L421.48,91.8L421.66,90.96L422.57,87.05L422.94,87.49L423.12,87.24L424.95,82.97L425.13,83.32L425.31,84.02L425.68,84.7L425.86,84.99L426.95,86.61L427.14,87.55L427.68,90.77L428.23,90.64L428.41,90.15L428.78,89.52L428.96,90.2L429.14,91.19L429.87,101.03L430.06,104.71L430.79,115.04L430.97,113.24L431.15,111.79L432.43,103.74L432.61,104.07L433.34,106.33L433.52,105.39L433.71,104.11L434.98,100.01L435.35,100.74L435.53,101.4L435.9,102.21L436.26,101.77L436.45,101.23L438.27,97.13L438.45,95.54L440.28,86.25L440.46,86.44L441.01,89L441.37,88.23L441.56,87.38L442.29,85.94L442.47,86.22L442.65,86.73L443.56,89.04L443.75,88.73L443.93,88.33L445.21,85.11L445.39,85.7L446.12,85.16L446.3,85.58L446.48,85.85L447.76,86.96L447.95,87.06L448.13,87.29L448.68,86.8L448.86,86.91L449.22,87.71L449.41,88.25L450.87,88.47L451.05,88.32L451.96,87.61L452.14,87.85L453.79,87.61L453.97,87.15L454.7,84.02L454.88,82.76L456.16,77.87L456.34,77.63L456.71,77.18L456.89,76.78L457.25,76.26L457.62,76.71L457.8,76.7L458.35,76.1L458.53,75.4L459.08,75.22L459.26,75.47L459.44,76.07L460.72,77.56L460.91,77.32L461.09,77.14L461.45,76.63L461.64,77.3L461.82,78.23L462.73,83.14L463.1,82.69L463.28,82.64L464.74,79.58L464.92,80.03L465.1,80.4L465.65,81.47L466.02,81.07L466.2,80.52L466.93,80.7L467.11,80.98L468.02,80.71L468.21,80.36L469.48,77.36L469.67,77.62L469.85,77.6L470.4,75.47L470.58,74.04L471.86,70.17L472.04,69.76L476.79,53.61L476.97,54.35L477.15,55.21L477.52,56.07L477.7,55.72L477.88,54.75L478.43,52.41L478.98,52.55L479.16,52.95L480.07,53.88L480.25,53.51L480.44,52.95L482.26,42.27L482.44,40.97L484.63,23.16L484.82,21.11L485,18.82" style="vector-effect: non-scaling-stroke; fill: none; stroke: rgb(239, 85, 59); stroke-opacity: 1; stroke-width: 2px; opacity: 1;"/></g><g class="points"/><g class="text"/></g><g class="trace scatter trace47255e" style="stroke-miterlimit: 2; opacity: 1;"><g class="fills"/><g class="errorbars"/><g class="lines"><path class="js-line" d="M0,6720L2.3654692102634565,6720L2.37,297.17L2.56,296.71L4.02,287.16L4.2,285.13L6.02,276.69L6.21,275.93L7.48,262.26L7.67,259.68L12.05,194.05L12.23,194.68L12.41,195.85L15.7,217.12L16.06,215.75L16.25,214.57L17.16,210.6L17.34,209.6L19.17,201.61L19.35,201.71L20.63,203.31L20.81,203.36L22.82,204.07L23,203.99L23.55,205.04L23.73,205.86L27.2,222.51L27.38,223.08L27.75,224.17L28.11,223.08L28.29,222.76L29.75,217.78L29.94,218.01L30.12,218.26L31.58,220.24L31.76,220.88L32.86,225.24L33.04,226.22L35.41,236.26L35.59,236.52L35.96,235.9L36.14,235.18L37.24,231.09L37.42,230.32L37.6,230.18L37.79,230.86L37.97,231.56L39.79,236.26L39.98,236.08L40.16,236.01L42.17,235.52L42.35,235.08L43.44,229.2L43.63,227.99L46,217.32L46.18,217.29L46.55,217.88L46.73,218.18L48.55,221.55L48.74,221.5L49.65,221.83L49.83,221.29L51.48,218.3L51.84,218.56L52.02,218.67L53.48,219.08L53.67,219.17L54.94,220.4L55.13,220.74L56.59,222.32L56.77,222.23L57.68,222.33L57.86,222.76L59.87,230.11L60.24,229.97L60.42,229.72L60.78,228.93L61.15,229.42L61.33,229.71L63.89,232.29L64.07,232.46L64.8,234.62L64.98,235.42L68.45,247.06L68.63,247.41L69,246.98L69.18,246.15L70.46,242.53L70.64,242.46L73.56,249.08L73.74,248.97L74.29,247.59L74.47,246.06L75.75,242L75.94,242.24L76.12,242.55L77.21,244.69L77.4,244.7L77.94,243.99L78.13,243.66L79.04,243.68L79.22,243.9L82.69,251.36L82.87,251.22L83.05,251.3L83.97,252.74L84.15,253.49L86.52,265.54L86.7,266.96L87.44,271.21L87.62,270.93L87.8,269.63L88.9,264.71L89.08,264.99L89.26,264.92L89.44,264.8L89.63,265.32L89.81,266.48L90.72,268.56L90.9,268.42L91.09,268.66L91.27,268.96L91.45,268.7L91.63,268.06L94.55,263.9L94.74,263.25L97.29,256.59L97.47,257.02L100.21,264.06L100.4,263.92L100.58,263.8L101.31,263.36L101.49,263.48L101.67,263.62L102.4,265.38L102.59,266.08L103.86,268.29L104.05,268.06L104.23,267.89L105.14,268.03L105.32,267.78L106.05,267.49L106.24,267.16L108.06,265.75L108.24,265.63L111.35,266.64L111.53,266.96L112.81,268.34L112.99,268.2L113.17,268.11L114.09,266.47L114.27,266.04L118.28,260.5L118.47,259.74L119.74,256.91L119.93,256.83L121.2,257.91L121.39,257.65L122.66,256.82L122.85,256.89L124.31,259.18L124.49,259.57L126.13,264.14L126.32,264.83L127.59,268.53L127.78,268.61L128.14,268.7L128.32,268.18L128.51,267.97L130.33,265.84L130.51,266.04L132.34,267.16L132.52,267.06L135.26,264.86L135.44,264.73L136.72,262.2L136.9,261.72L138.36,257.57L138.55,256.52L140.74,243.77L140.92,243.85L141.1,244.26L142.38,250.26L142.56,250.12L142.74,250.02L143.29,250.68L143.66,250.32L143.84,250L144.93,246.5L145.12,245.8L148.04,234.78L148.22,235.1L149.32,235.47L149.5,235.93L150.96,237.1L151.14,236.95L152.42,235.77L152.6,235.96L154.43,241.9L154.79,241.56L154.97,241.55L157.53,243.59L157.71,243.51L158.81,241.53L158.99,240.92L160.81,237.1L161,236.94L162.09,237.97L162.28,238.19L163.74,239.01L163.92,238.9L170.12,237.29L170.31,237.04L172.68,234.58L172.86,234.7L173.77,234.55L173.96,234.49L176.33,235L176.51,235.1L176.88,235.06L177.06,234.68L177.24,234.01L181.62,212.2L181.99,213.15L182.17,213.14L183.27,217.03L183.45,216.87L183.63,216.06L185.27,215.95L185.46,216.15L186.55,216.07L186.74,215.9L188.2,216.17L188.38,216.3L189.11,217.36L189.29,218.11L190.93,222.46L191.12,222.22L191.3,222.19L192.94,222.84L193.12,222.87L195.5,222.42L195.68,222.08L197.5,219.93L197.69,220L200.06,220.7L200.24,220.57L205.17,216.5L205.35,215.93L207.36,212.38L207.54,212.34L208.64,212.33L208.82,212.11L210.83,210.92L211.01,211.06L212.66,209.5L212.84,209.23L215.03,207.42L215.21,206.59L217.77,196.01L218.13,196.79L218.31,197.11L218.86,198.82L219.04,200.09L220.32,204.14L220.5,204.08L221.96,200.41L222.15,200.3L222.69,199.77L222.88,199.2L224.52,194.94L224.7,195.01L224.89,195.09L225.8,195.31L225.98,194.97L226.16,194.58L229.27,185.78L229.45,185.97L230.54,187.19L230.73,187.78L233.1,195.39L233.28,195.46L233.65,194.63L233.83,193.58L235.84,187.37L236.02,187.21L237.48,186.31L237.66,186.05L239.12,182.31L239.31,181.35L244.78,154.38L244.96,154.49L245.33,152.93L245.51,151.61L246.79,145.67L246.97,145.82L247.15,146.54L248.25,148.77L248.43,148.65L248.61,148.73L249.53,148.51L249.71,148.73L250.81,150.52L250.99,150.36L252.08,151.14L252.27,151.73L253.36,156.68L253.54,155.85L253.73,154.91L255.55,147.36L255.73,147.52L255.92,147.58L256.1,147.5L256.28,146.47L259.75,126.35L259.93,126.43L261.21,123.55L261.39,122.78L262.49,121.7L262.67,122.11L264.13,128.35L264.31,129.41L265.41,132.07L265.59,131.56L265.77,131.37L268.15,124.41L268.33,123.76L269.06,120.01L269.24,118.41L270.88,110.95L271.07,111.15L272.34,109.66L272.53,108.92L274.17,100.19L274.35,100.74L274.54,101.59L275.08,102.31L275.27,101.75L275.45,101.58L276,100.03L276.18,98.65L281.47,56.96L281.65,57.57L281.84,58.14L282.93,64.37L283.11,65.42L283.66,67.44L284.03,66.58L284.21,66.48L285.49,64.28L285.67,64.51L285.85,64.8L286.22,66.5L286.4,68.53L288.04,77.7L288.23,77.64L288.77,77.83L288.96,78.94L289.87,84.53L290.05,86.89L291.15,94.45L291.33,94.16L291.51,94.46L292.61,85.51L292.79,84.08L293.34,81.7L293.88,82.06L294.07,82.04L294.8,81.89L294.98,81.08L295.53,80.21L295.71,80.8L295.89,81.56L297.17,90.07L297.35,91.12L298.45,92.56L298.63,92.18L299.18,92.05L299.36,92.23L299.54,93.24L301.19,101.69L301.55,101.63L301.73,101.7L302.1,101.28L302.28,100.77L305.38,88.62L305.57,88.51L307.21,87.3L307.39,87.62L310.86,97.61L311.04,98.13L311.77,98.21L312.87,98.55L315.61,105.58L315.79,105.84L316.52,107.42L316.7,107.01L316.88,106.79L318.34,104.74L318.53,104.91L318.89,105.19L319.26,105.21L319.44,104.63L319.62,104.05L320.72,99.05L320.9,97.81L322.18,94.69L322.36,94.8L324,101.84L324.19,102.7L325.46,106.29L325.65,106.13L325.83,106.07L326.38,105.45L326.56,105.16L328.57,100.78L328.93,101.45L329.11,102.07L331.12,106.68L331.3,106.67L332.76,105.72L332.95,105.5L334.59,104.28L334.77,104.22L336.42,105.12L336.6,105.34L338.06,105.75L338.24,105.71L340.25,105.9L340.43,105.85L341.16,105.9L341.34,106.58L342.44,112.66L342.62,114.31L344.81,129.09L344.99,128.9L345.72,130.67L345.91,131.58L347.18,137.35L347.73,136.77L347.91,135.85L349.92,130.5L350.11,130.94L351.2,130.9L351.38,130.38L351.93,130.45L352.11,130.79L354.3,133.93L354.49,133.94L355.4,134.89L355.58,135.04L356.86,136.38L357.22,135.85L357.41,135.57L359.6,131.86L359.78,131.17L360.88,130.32L361.06,130.47L361.24,130.6L362.15,131.06L362.34,130.9L366.53,128.37L366.72,127.37L368.91,116.48L369.09,116.46L371.64,115.16L371.83,115.17L372.56,114.67L372.74,114.14L373.84,108.91L374.02,107.64L375.84,96.01L376.03,96.01L376.57,95.48L376.76,94.53L378.03,91.64L378.22,91.89L379.86,95.5L380.04,94.88L380.22,94.24L382.05,83.99L382.23,82.37L383.69,77.12L383.87,77.42L384.06,77.94L384.6,77.56L384.79,77.08L385.15,76.3L385.52,77.05L385.7,77.06L387.89,83.16L388.07,83.69L388.8,85.07L388.99,84.83L389.17,84.31L390.99,77.36L391.18,77.69L391.36,78.3L394.46,84.4L394.64,84.4L396.47,82.13L396.83,82.41L397.02,82.54L398.48,83.34L398.66,84.15L401.03,93.89L401.22,93.86L402.31,93.19L402.68,93.27L403.41,93.68L403.59,93.91L404.32,94.95L404.5,94.24L406.33,87.45L406.51,87.58L406.69,87.7L409.43,93.59L409.61,94.45L411.07,99L411.26,98.95L413.26,99.08L413.45,99.16L415.09,100.66L415.27,100.55L417.64,99.39L417.83,98.9L420.75,90.72L420.93,90.88L421.11,91.16L421.84,90.78L422.02,90.28L425.49,83.66L425.68,83.87L426.59,85.09L426.77,85.35L429.69,93.44L429.87,95.31L431.33,111.74L431.7,111L431.88,109.77L433.34,105.02L433.52,104.72L434.25,104.12L434.44,103.43L435.53,101.06L435.72,101.04L437.36,100.88L437.54,100.46L439,94.22L439.18,93.42L440.46,88.01L440.83,88.21L441.01,87.99L441.56,87.31L441.92,87.52L442.1,87.47L442.83,86.66L443.02,87.03L443.2,87.26L444.11,88.06L444.29,87.91L444.48,87.35L446.12,85.13L446.48,85.66L446.67,85.77L448.31,86.94L448.49,86.86L449.95,87.72L450.14,88.03L451.05,88.33L451.23,88.13L454.33,87.23L454.52,86.82L456.89,77.37L457.07,77.13L459.26,75.78L459.44,75.73L460.36,76.63L460.54,76.88L461.82,77.78L462,78.38L463.64,82.56L463.83,82.19L464.01,81.81L465.65,80.52L465.83,80.65L468.02,80.84L468.21,80.71L470.58,75.8L470.76,75.19L474.78,62.32L474.96,62.17L475.87,58.5L476.06,57.71L477.52,54.86L477.7,54.66L478.98,53.08L479.16,52.86L479.71,53.23L479.89,53.31L480.44,53.2L480.62,52.63L484.45,29.31L484.63,27.3L485,23.65" style="vector-effect: non-scaling-stroke; fill: none; stroke: rgb(0, 204, 150); stroke-opacity: 1; stroke-width: 2px; opacity: 1;"/></g><g class="points"/><g class="text"/></g><g class="trace scatter traceeca13d" style="stroke-miterlimit: 2; opacity: 1;"><g class="fills"/><g class="errorbars"/><g class="lines"><path class="js-line" d="M0,6720L4.191962779445538,6720L4.2,290.78L4.38,289.78L6.94,273.86L7.12,271.85L8.76,254.34L8.94,250.5L12.96,200.21L13.14,199.73L13.87,198.58L14.06,199.2L14.24,199.94L16.25,210.14L16.43,210.68L17.52,212.63L17.71,211.56L19.71,204.35L19.9,204.01L21.17,202.65L21.36,202.97L21.54,203.18L23.73,204.67L23.91,205.29L26.1,213.62L26.29,214.65L28.11,221.49L28.29,221.43L28.48,221.09L30.3,220.22L30.48,219.7L31.58,219L31.76,219.42L33.4,223.94L33.59,224.85L35.96,234.35L36.14,234.28L36.32,234.32L37.05,233.92L37.24,233.61L37.97,233.34L38.15,233.47L38.33,233.57L39.43,232.84L39.61,233.36L39.79,233.85L41.98,235.8L42.17,235.74L43.08,233.97L43.26,233.13L46.91,219.38L47.09,219.35L48.19,219.4L48.37,219.66L50.02,221.28L50.2,221.04L50.38,220.82L52.57,219.11L52.75,218.99L54.03,219.06L54.21,219.16L57.86,222.45L58.05,222.81L61.7,230.16L61.88,230.17L64.8,233.28L64.98,233.69L67.36,240.14L67.54,241.13L69,244.43L69.18,244.56L70.82,244.94L71.01,244.82L71.74,244.34L71.92,244.56L72.1,244.67L72.83,245.99L73.01,246.4L74.29,247.74L74.47,247.1L77.94,243.27L78.13,243.65L80.68,245.5L80.86,245.85L84.51,253.05L84.7,253.17L85.79,256.15L85.97,257.21L88.53,266.2L88.71,266.75L89.26,267.97L89.63,267.43L89.81,267.36L91.45,266.98L91.63,267.27L92.36,267.68L92.55,267.53L92.73,267.23L94.55,264.96L94.74,264.37L97.84,258.33L98.02,258.33L98.93,259.14L99.12,259.4L104.05,266.38L104.23,266.62L105.51,268.04L105.69,268.03L108.43,266.18L108.61,266.1L110.8,266.04L110.98,266.14L113.17,267.37L113.36,267.45L114.63,266.91L114.82,266.68L118.47,261.6L118.65,261.06L120.47,258.37L120.66,258.18L121.93,256.96L122.12,257.12L122.3,257.35L125.22,259.27L125.4,259.79L128.87,267.82L129.05,267.69L129.24,267.56L134.89,265.96L135.08,265.81L137.45,262.33L137.63,261.88L139.09,257.29L139.28,256.27L140.92,248.66L141.1,248.25L142.56,246.84L142.74,246.84L144.2,249.53L144.39,249.04L145.85,246.24L146.03,245.56L149.13,235.86L149.32,235.68L152.24,236.26L152.42,236.4L154.97,239.79L155.16,240.29L156.8,242.61L156.98,242.64L158.62,242.85L158.81,242.55L162.28,237.78L162.46,237.82L166.11,238.78L166.29,238.77L169.03,238.2L169.21,238.14L171.22,236.66L171.4,236.41L175.24,234.5L175.42,234.46L177.06,234.46L177.24,234.15L178.89,229.64L179.07,229.05L182.72,215.41L182.9,215.21L184,214.56L184.18,214.76L185.27,216.41L185.64,216.12L185.82,216.2L188.56,216.16L188.74,216.24L189.47,217.25L189.66,217.62L192.76,222.65L192.94,222.53L193.12,222.53L195.86,222.28L196.04,222.07L198.96,220.29L199.15,220.31L202.07,220.1L202.25,219.93L205.35,217.04L205.54,216.76L209.37,211.99L209.55,211.96L211.38,211.13L211.56,210.89L213.75,209.54L213.93,209.42L215.76,206.56L215.94,206.13L218.68,198.6L218.86,198.96L221.42,202.5L221.6,202.29L222.51,201.6L222.69,201.07L224.89,196.82L225.07,196.57L227.99,191.13L228.17,190.52L230.18,186.56L230.36,186.45L231.46,187.94L231.64,188.43L233.83,193.38L234.01,193.63L234.56,192.86L234.74,192.52L239.85,181.78L240.04,181.15L245.15,156.75L245.33,155.56L246.97,149.82L247.15,149.63L248.8,147.18L248.98,147.38L249.16,147.73L252.27,151.11L252.45,151.59L253.36,153.49L253.54,153.23L253.73,152.91L255,152.09L255.19,151.9L256.28,148.65L256.46,147.5L261.58,124.26L261.76,124.19L263.58,123.71L263.77,124.27L266.87,129.95L267.05,129.65L268.69,125.5L268.88,124.31L271.61,112.72L271.8,112.24L276.54,99.06L276.73,98.79L277.82,93.9L278,92.48L282.38,61.06L282.57,60.74L287.5,69.44L287.68,70.22L289.5,78.96L289.69,79.92L291.88,89.07L292.06,89.34L292.42,89.59L292.61,89.18L292.79,88.93L295.34,80.95L295.71,81.42L295.89,81.8L299,91.1L299.18,91.58L300.09,94.44L300.27,95.07L301.19,96.73L301.37,97.2L302.46,99.76L302.65,99.65L302.83,99.6L303.19,99.13L303.38,98.68L307.03,87.97L307.21,87.95L308.67,89.59L308.85,89.86L309.58,91.08L309.76,91.71L311.77,96.44L312.87,96.94L316.7,105.86L316.88,105.8L319.44,105.42L319.62,104.96L323.09,96.58L323.27,96.77L323.46,97.1L324.55,99.99L324.73,100.53L326.74,105.48L326.92,105.48L329.3,102.94L329.48,103.01L330.57,103.74L330.76,104.04L332.58,106.33L332.76,106.21L332.95,106.08L336.05,104.56L336.23,104.65L341.53,106.67L341.71,107.05L342.8,110.7L342.99,111.56L347,132.85L347.18,133.14L348.83,134.23L349.01,134.07L350.84,131.98L351.02,131.45L351.75,130.4L351.93,130.69L352.11,130.83L356.31,134.88L356.49,135L357.77,135.27L357.95,135.27L358.87,134.78L359.05,134.46L361.42,131.38L361.61,131.21L363.07,130.58L363.25,130.63L363.98,130.42L364.16,130.28L366.72,128.2L366.9,127.45L371.1,115.61L371.28,115.61L372.19,115.41L372.37,115.12L374.02,111.25L374.2,110.26L377.67,94.16L377.85,93.91L379.13,93.72L379.31,93.72L380.95,92.67L381.14,92.36L382.05,88.85L382.23,87.6L385.15,77.07L385.33,76.98L386.07,78.16L386.25,78.53L389.35,83.48L389.53,82.92L391.72,80.14L391.91,79.95L392.82,79.75L393,79.94L395.19,83.12L395.37,83.09L398.48,82.83L398.66,83.27L402.86,93.53L403.04,93.6L404.5,93.75L404.68,93.24L407.97,88.49L408.15,88.67L409.98,92.98L410.16,93.62L412.72,98.83L412.9,98.97L415.45,99.92L415.64,100.03L417.28,100.15L417.46,100L423.85,88.18L424.03,87.88L426.04,84.87L426.22,84.79L426.77,84.57L426.95,84.79L427.14,85.04L429.51,89.87L429.69,90.95L432.98,107.92L433.16,108.53L434.07,105.88L434.25,105.2L435.53,102.86L435.72,102.8L436.26,102.33L436.45,101.85L438.82,98.27L439,97.65L442.47,87.46L442.65,87.4L443.56,87.64L443.75,87.75L444.29,87.35L444.48,86.97L448.49,86.31L448.68,86.44L452.51,88.12L452.69,88.13L454.52,87.31L454.7,86.81L456.89,80.51L457.07,79.95L458.9,76.5L459.08,76.41L461.82,76.88L462,77.27L463.83,80.25L464.01,80.31L465.83,81.23L466.02,81.14L467.48,80.63L467.66,80.73L468.57,80.51L468.75,80.25L471.13,76.19L471.31,75.69L477.15,57.82L477.33,57.5L479.71,53.89L479.89,53.85L480.62,53.12L480.8,52.37L483.72,39.76L483.9,38.43L485,30.66" style="vector-effect: non-scaling-stroke; fill: none; stroke: rgb(171, 99, 250); stroke-opacity: 1; stroke-width: 2px; opacity: 1;"/></g><g class="points"/><g class="text"/></g><g class="trace scatter tracefb4a86" style="stroke-miterlimit: 2; opacity: 1;"><g class="fills"/><g class="errorbars"/><g class="lines"><path class="js-line" d="M0,6720L9.651410741878422,6720L9.67,261.36L9.86,259.08L13.33,222.74L13.51,221.56L15.52,213.49L15.7,212.86L18.44,205.15L18.62,204.9L19.71,204.54L19.9,204.81L21.17,206.6L21.36,206.48L21.54,206.25L23.91,206.02L24.09,205.9L25.19,206.25L25.37,206.38L26.65,208.02L26.83,208.61L29.39,213.51L29.57,213.85L36.32,225.81L36.51,225.99L37.6,227.29L37.79,227.67L42.17,234.63L42.35,234.57L43.26,233.76L43.44,233.5L45.63,229.38L45.82,229.1L52.94,219.54L53.12,219.46L54.76,219.93L54.94,220.04L57.13,220.4L57.32,220.42L58.78,221.35L58.96,221.63L64.62,228.93L64.8,229.29L73.38,244.56L73.56,244.77L75.21,245.36L75.39,245.34L80.86,245.58L81.05,245.66L83.78,247.08L83.97,247.41L86.7,252.93L86.89,253.45L89.99,260.41L90.17,260.71L94.19,266.71L94.37,266.79L95.1,266.09L95.28,265.88L97.84,263.17L98.02,263.04L100.03,261.99L100.21,261.86L102.04,261.61L102.22,261.65L104.59,263.27L104.78,263.47L107.15,265.75L107.33,265.87L110.8,266.8L110.98,266.82L113.36,266.85L113.54,266.79L118.65,264.27L118.83,264.07L124.31,259.04L124.49,258.97L125.95,259.14L126.13,259.22L127.96,261.19L128.14,261.42L132.89,266.13L133.07,266.24L134.89,266.75L135.08,266.7L137.09,265.13L137.27,264.95L139.28,261.84L139.46,261.09L141.28,256.5L141.47,256.17L146.39,246.99L146.58,246.56L149.13,242.52L149.32,242.42L150.96,240.38L151.14,240.12L153.33,237.72L153.51,237.71L154.97,237.46L155.16,237.57L157.53,239.71L157.71,239.9L159.35,240.37L159.54,240.36L164.83,239.63L165.01,239.52L168.66,238.4L168.85,238.43L172.13,237.45L172.31,237.35L177.24,235.03L177.43,234.79L180.35,229.73L180.53,229.21L182.72,224.02L182.9,223.72L187.83,216.01L188.01,215.91L189.29,215.83L189.47,215.99L192.39,218.5L192.58,218.65L196.23,221.13L196.41,221.18L198.96,221.64L199.15,221.62L202.62,220.5L202.8,220.39L207.54,217.02L207.73,216.84L212.84,211.93L213.02,211.75L216.67,207.79L216.85,207.48L219.04,204.52L219.23,204.42L221.78,202.18L221.96,202.01L227.81,196.36L227.99,195.88L230.18,191.92L230.36,191.61L232,190.83L232.19,190.87L233.65,190.69L233.83,190.56L236.93,189.24L237.12,189.25L238.39,189.01L238.58,188.87L240.04,186.74L240.22,186.26L243.14,176.22L243.32,175.38L249.71,153.09L249.89,152.81L252.27,150.13L252.45,150.27L253.73,150.12L253.91,149.99L255.19,150.18L255.37,150.26L256.28,149.94L256.46,149.66L257.92,147.01L258.11,146.37L264.13,129.27L264.31,129.01L266.5,126.71L266.69,126.57L268.88,125.38L269.06,125.09L272.89,117.87L273.07,117.17L279.46,92.97L279.65,91.77L282.75,75.76L282.93,75.15L286.58,66.04L286.77,66L288.04,66L288.23,66.37L289.69,69.82L289.87,70.62L291.69,76.59L291.88,76.94L296.26,84.37L296.44,84.61L299.18,87.07L299.36,87L301.19,89.08L301.37,89.48L303.92,93.62L304.11,93.9L305.38,94.35L305.57,94.35L306.3,93.74L306.48,93.55L307.76,93.4L307.94,93.36L310.13,92.25L310.31,92.2L313.23,92.7L313.42,92.9L319.8,103.04L319.99,103.08L321.26,102.57L321.45,102.47L324.37,101.84L324.55,101.85L329.11,101.25L329.3,101.41L333.13,104.77L333.31,104.73L336.42,104.75L336.6,104.84L339.15,105.47L339.34,105.46L341.71,105.82L341.89,105.97L342.99,107.79L343.17,108.25L347.18,119.31L347.37,119.91L351.75,131.23L351.93,131.39L354.12,132.94L354.3,133.02L356.31,133.06L356.49,133L357.95,133.36L358.14,133.49L360.69,133.6L360.88,133.54L364.53,131.82L364.71,131.67L367.26,128.89L367.45,128.53L371.46,121.59L371.64,121.33L373.84,116.68L374.02,116.11L377.49,104.93L377.67,104.41L383.69,88.53L383.87,88.2L386.61,83.68L386.8,83.49L391.18,79.73L391.36,79.92L393.73,81.38L393.91,81.62L395.37,82L395.56,82L397.2,81.78L397.38,81.71L398.48,81.9L398.66,82.19L403.04,87.85L403.22,88.01L408.33,91.62L408.52,91.58L410.16,92.2L410.34,92.29L413.99,94.77L414.18,95.01L417.83,99.18L418.01,99.18L418.92,98.79L419.1,98.59L424.03,92.49L424.22,92.13L427.14,87.97L427.32,87.86L429.51,87.85L429.69,88.15L432.79,94.23L432.98,94.67L436.99,102.2L437.18,102.44L438.64,103.08L438.82,102.65L443.02,93.36L443.2,93.11L445.02,90.29L445.21,90.01L447.95,87L448.13,86.96L449.95,86.87L450.14,86.89L452.51,87.05L452.69,87.05L455.06,86.85L455.25,86.73L462.73,78.45L462.91,78.37L465.1,78.41L465.29,78.49L469.85,80.07L470.03,80.06L470.94,79.36L471.13,79.1L474.23,73.76L474.41,73.29L481.71,54.53L481.9,54.04L484.45,45.04L484.63,44.09L485,42.24" style="vector-effect: non-scaling-stroke; fill: none; stroke: rgb(255, 161, 90); stroke-opacity: 1; stroke-width: 2px; opacity: 1;"/></g><g class="points"/><g class="text"/></g><g class="trace scatter trace448aa7" style="stroke-miterlimit: 2; opacity: 1;"><g class="fills"/><g class="errorbars"/><g class="lines"><path class="js-line" d="M0,6720L18.763657835205596,6720L18.8,225.24L18.98,224.57L23.73,211.06L23.91,210.74L26.29,207.86L26.47,207.73L27.75,207.71L27.93,207.84L29.02,208.68L29.21,209L32.13,212.46L32.31,212.51L34.86,214.65L35.05,214.93L38.7,221L38.88,221.35L43.08,227.99L43.26,228.05L44.9,228.03L45.09,227.9L46.91,227.66L47.09,227.68L50.75,227.58L50.93,227.45L58.78,222.46L58.96,222.43L61.51,222.15L61.7,222.24L64.07,223.9L64.25,224.06L70.09,230.82L70.28,231.07L77.94,240.74L78.13,240.89L89.99,252.43L90.17,252.6L102.22,263.69L102.4,263.79L104.96,264.34L105.14,264.31L108.06,264.27L108.24,264.24L112.63,264.47L112.81,264.56L117.01,265.89L117.19,265.86L121.02,264.27L121.2,264.13L124.67,262.41L124.86,262.37L127.96,262.61L128.14,262.63L138.18,263.06L138.36,263.01L143.29,259.63L143.47,259.49L146.21,255.54L146.39,255.14L153.15,244.36L153.33,244.18L157.35,241.32L157.53,241.31L158.99,241.11L159.17,240.98L163.74,238.72L163.92,238.7L169.58,239.43L169.76,239.46L171.77,238.97L171.95,238.92L177.06,236.75L177.24,236.65L179.98,234.24L180.16,233.93L185.82,226.07L186,225.84L190.75,221.6L190.93,221.49L196.77,218.67L196.96,218.64L199.15,219.12L199.33,219.23L201.34,219.68L201.52,219.73L205.35,220.04L205.54,220.01L209,218.48L209.19,218.34L215.58,213.57L215.76,213.36L224.34,204.28L224.52,204.1L228.17,199.74L228.35,199.47L231.64,195.82L231.82,195.71L236.39,193.13L236.57,192.98L239.67,189.47L239.85,189.2L242.96,183.4L243.14,182.81L248.07,170.28L248.25,169.87L252.81,160.83L253,160.59L256.65,153.89L256.83,153.45L263.77,138.86L263.95,138.71L266.87,135.88L267.05,135.63L269.79,130.79L269.97,130.37L278.92,108.22L279.1,107.29L283.66,88.86L283.84,88.26L287.13,80.09L287.31,79.83L290.6,76.86L290.78,76.78L292.61,75.7L292.79,75.49L295.53,73.98L295.71,74.03L297.35,75.24L297.53,75.54L298.81,77.73L299,78.22L302.28,84.77L302.46,85.11L304.84,88.69L305.02,88.78L308.12,90.18L308.3,90.07L310.13,90.45L310.31,90.62L311.77,91.98L312.87,92.15L317.25,96.7L317.61,96.82L319.8,97.49L319.99,97.49L323.09,97.24L323.27,97.37L329.48,102.33L329.66,102.41L333.49,103.24L333.68,103.22L337.88,103.19L338.06,103.26L342.44,105.74L342.62,105.88L345.18,108.6L345.36,108.88L349.38,114.57L349.92,114.81L353.94,120.8L354.12,121.09L361.61,132.68L361.79,132.67L365.26,132.18L365.44,132.09L369.82,128.81L370,128.61L374.02,123.21L374.2,122.73L379.31,110.97L379.49,110.62L382.23,103.72L382.41,103.2L386.07,94.13L386.25,93.81L392.27,84.75L392.45,84.65L399.03,81.54L399.21,81.59L401.58,83.31L401.76,83.48L405.78,85.97L405.96,86.01L408.15,86.84L408.33,87.02L418.19,95.25L418.37,95.27L421.84,94.76L422.02,94.67L424.22,94.15L424.4,94.09L430.24,92.8L430.42,92.95L432.43,93.55L432.61,93.6L435.53,93.96L435.72,93.99L439.91,94.66L440.1,94.63L443.2,95.13L443.38,95.2L445.94,94.95L446.12,94.89L448.13,93.98L448.31,93.72L451.23,90.85L451.41,90.7L462,82.76L462.18,82.72L467.84,81.1L468.02,81.02L471.13,78.95L471.31,78.78L478.61,70.16L478.79,69.89L481.71,64.43L481.9,64.03L484.27,57.04L484.45,56.34L485,53.97" style="vector-effect: non-scaling-stroke; fill: none; stroke: rgb(25, 211, 243); stroke-opacity: 1; stroke-width: 2px; opacity: 1;"/></g><g class="points"/><g class="text"/></g><g class="trace scatter traceb61607" style="stroke-miterlimit: 2; opacity: 1;"><g class="fills"/><g class="errorbars"/><g class="lines"><path class="js-line" d="M0,6720L36.978338369240795,6720L37.05,221.56L37.24,221.41L41.98,218.42L42.17,218.32L46.18,216.65L46.36,216.69L48.01,217.99L48.19,218.17L50.2,219.41L50.38,219.5L54.21,220.35L54.4,220.49L63.16,225.52L63.34,225.53L66.26,226.87L66.44,226.99L71.01,228.93L71.19,228.98L80.5,231.69L80.68,231.83L87.98,239.28L88.17,239.5L97.47,250.11L97.66,250.27L104.96,255.92L105.14,256.03L117.92,263.7L118.1,263.75L121.93,264.08L122.12,264.04L126.32,263.32L126.5,263.34L133.25,264.06L133.43,264.11L136.72,264.22L136.9,264.2L139.28,263.38L139.46,263.18L141.83,261.62L142.01,261.52L146.39,258.74L146.58,258.57L153.7,252.38L153.88,252.27L163.74,246.92L163.92,246.79L175.6,239.25L175.78,239.21L177.97,238.36L178.16,238.23L188.2,230.75L188.38,230.64L200.43,224.79L200.61,224.71L211.56,218.44L211.74,218.32L220.32,213.73L220.5,213.64L225.98,210.25L226.16,210.09L237.66,199.71L237.85,199.54L241.86,194.52L242.04,194.24L245.51,187.36L245.69,186.96L250.81,177.28L250.99,176.98L258.47,165.09L258.65,164.65L265.04,152.39L265.23,152.16L269.42,144.91L269.61,144.52L278,125.74L278.19,125.21L286.04,101.51L286.22,101.15L290.96,94.83L291.15,94.65L298.08,88.25L298.26,88.15L303.01,85.8L303.19,85.7L310.13,82.89L310.31,82.89L315.06,83.43L315.24,83.52L317.8,85.95L317.98,86.22L321.08,89.81L321.26,89.95L323.64,92.63L323.82,92.85L327.11,95.35L327.29,95.38L331.67,97.5L331.85,97.64L335.87,99.76L336.05,99.82L339.15,100.42L339.34,100.44L341.71,101.28L341.89,101.41L345.18,104.68L345.36,104.86L349.92,108.65L350.11,108.77L357.59,114.1L357.77,114.31L362.34,118.14L362.52,118.26L368.72,122.1L368.91,122.17L374.2,123.5L374.38,123.42L379.86,119.96L380.04,119.71L383.33,113.92L383.51,113.53L387.53,106.95L387.71,106.73L392.45,100.05L392.64,99.82L398.84,93.05L399.03,92.92L408.52,87.44L408.7,87.36L411.62,87.02L411.8,87.02L419.1,88.51L419.29,88.6L423.49,89.91L423.67,89.92L427.87,90.57L428.05,90.61L431.33,92.25L431.52,92.39L436.26,94.69L436.45,94.72L439.91,94.74L440.1,94.69L452.69,91.81L452.87,91.76L467.84,86.36L468.02,86.23L472.59,82.76L472.77,82.6L478.61,76.44L478.79,76.24L482.63,71.22L482.81,70.89L485,65.81" style="vector-effect: non-scaling-stroke; fill: none; stroke: rgb(255, 102, 146); stroke-opacity: 1; stroke-width: 2px; opacity: 1;"/></g><g class="points"/><g class="text"/></g></g></g><g class="overplot"/><path class="xlines-above crisp" style="fill: none;" d="M0,0"/><path class="ylines-above crisp" style="fill: none;" d="M0,0"/><g class="overlines-above"/><g class="xaxislayer-above"><g class="xtick"><text text-anchor="middle" x="0" y="433" transform="translate(96.78999999999999,0)" style="font-family: 'Open Sans', verdana, arial, sans-serif; font-size: 12px; fill: rgb(42, 63, 95); fill-opacity: 1; white-space: pre;">2014</text></g><g class="xtick"><text text-anchor="middle" x="0" y="433" transform="translate(230.05,0)" style="font-family: 'Open Sans', verdana, arial, sans-serif; font-size: 12px; fill: rgb(42, 63, 95); fill-opacity: 1; white-space: pre;">2016</text></g><g class="xtick"><text text-anchor="middle" x="0" y="433" transform="translate(363.48,0)" style="font-family: 'Open Sans', verdana, arial, sans-serif; font-size: 12px; fill: rgb(42, 63, 95); fill-opacity: 1; white-space: pre;">2018</text></g><g class="xtick"><text text-anchor="middle" x="0" y="433" transform="translate(496.73,0)" style="font-family: 'Open Sans', verdana, arial, sans-serif; font-size: 12px; fill: rgb(42, 63, 95); fill-opacity: 1; white-space: pre;">2020</text></g></g><g class="yaxislayer-above"><g class="ytick"><text text-anchor="end" x="79" y="4.199999999999999" transform="translate(0,408.01)" style="font-family: 'Open Sans', verdana, arial, sans-serif; font-size: 12px; fill: rgb(42, 63, 95); fill-opacity: 1; white-space: pre;">100</text></g><g class="ytick"><text text-anchor="end" x="79" y="3.15" transform="translate(0,374.3)" style="font-family: 'Open Sans', verdana, arial, sans-serif; font-size: 9px; fill: rgb(42, 63, 95); fill-opacity: 1; white-space: pre;">2</text></g><g class="ytick"><text text-anchor="end" x="79" y="3.15" transform="translate(0,329.73)" style="font-family: 'Open Sans', verdana, arial, sans-serif; font-size: 9px; fill: rgb(42, 63, 95); fill-opacity: 1; white-space: pre;">5</text></g><g class="ytick"><text text-anchor="end" x="79" y="4.199999999999999" transform="translate(0,296.03)" style="font-family: 'Open Sans', verdana, arial, sans-serif; font-size: 12px; fill: rgb(42, 63, 95); fill-opacity: 1; white-space: pre;">1000</text></g><g class="ytick"><text text-anchor="end" x="79" y="3.15" transform="translate(0,262.32)" style="font-family: 'Open Sans', verdana, arial, sans-serif; font-size: 9px; fill: rgb(42, 63, 95); fill-opacity: 1; white-space: pre;">2</text></g><g class="ytick"><text text-anchor="end" x="79" y="3.15" transform="translate(0,217.76)" style="font-family: 'Open Sans', verdana, arial, sans-serif; font-size: 9px; fill: rgb(42, 63, 95); fill-opacity: 1; white-space: pre;">5</text></g><g class="ytick"><text text-anchor="end" x="79" y="4.199999999999999" transform="translate(0,184.05)" style="font-family: 'Open Sans', verdana, arial, sans-serif; font-size: 12px; fill: rgb(42, 63, 95); fill-opacity: 1; white-space: pre;">10k</text></g><g class="ytick"><text text-anchor="end" x="79" y="3.15" transform="translate(0,150.34)" style="font-family: 'Open Sans', verdana, arial, sans-serif; font-size: 9px; fill: rgb(42, 63, 95); fill-opacity: 1; white-space: pre;">2</text></g><g class="ytick"><text text-anchor="end" x="79" y="3.15" transform="translate(0,105.78)" style="font-family: 'Open Sans', verdana, arial, sans-serif; font-size: 9px; fill: rgb(42, 63, 95); fill-opacity: 1; white-space: pre;">5</text></g></g><g class="overaxes-above"/></g></g><g class="polarlayer"/><g class="ternarylayer"/><g class="geolayer"/><g class="funnelarealayer"/><g class="pielayer"/><g class="treemaplayer"/><g class="sunburstlayer"/><g class="glimages"/><defs id="topdefs-656f96"><g class="clips"/><clipPath id="legend656f96"><rect width="113" height="143" x="0" y="0"/></clipPath></defs><g class="layer-above"><g class="imagelayer"/><g class="shapelayer"/></g><g class="infolayer"><g class="legend" pointer-events="all" transform="translate(574.7, 100)"><rect class="bg" shape-rendering="crispEdges" style="stroke: rgb(68, 68, 68); stroke-opacity: 1; fill: rgb(255, 255, 255); fill-opacity: 1; stroke-width: 0px;" width="113" height="143" x="0" y="0"/><g class="scrollbox" transform="translate(0, 0)" clip-path="url('#legend656f96')"><g class="groups"><g class="traces" style="opacity: 1;" transform="translate(0, 14.5)"><text class="legendtext user-select-none" text-anchor="start" x="40" y="4.680000000000001" style="font-family: 'Open Sans', verdana, arial, sans-serif; font-size: 12px; fill: rgb(42, 63, 95); fill-opacity: 1; white-space: pre;">BTC PRICE</text><g class="layers" style="opacity: 1;"><g class="legendfill"/><g class="legendlines"><path class="js-line" d="M5,0h30" style="fill: none; stroke: rgb(99, 110, 250); stroke-opacity: 1; stroke-width: 2px;"/></g><g class="legendsymbols"><g class="legendpoints"/></g></g><rect class="legendtoggle" pointer-events="all" x="0" y="-9.5" width="107.125" height="19" style="cursor: pointer; fill: rgb(0, 0, 0); fill-opacity: 0;"/></g><g class="traces" style="opacity: 1;" transform="translate(0, 33.5)"><text class="legendtext user-select-none" text-anchor="start" x="40" y="4.680000000000001" style="font-family: 'Open Sans', verdana, arial, sans-serif; font-size: 12px; fill: rgb(42, 63, 95); fill-opacity: 1; white-space: pre;">5 Day MA</text><g class="layers" style="opacity: 1;"><g class="legendfill"/><g class="legendlines"><path class="js-line" d="M5,0h30" style="fill: none; stroke: rgb(239, 85, 59); stroke-opacity: 1; stroke-width: 2px;"/></g><g class="legendsymbols"><g class="legendpoints"/></g></g><rect class="legendtoggle" pointer-events="all" x="0" y="-9.5" width="107.125" height="19" style="cursor: pointer; fill: rgb(0, 0, 0); fill-opacity: 0;"/></g><g class="traces" style="opacity: 1;" transform="translate(0, 52.5)"><text class="legendtext user-select-none" text-anchor="start" x="40" y="4.680000000000001" style="font-family: 'Open Sans', verdana, arial, sans-serif; font-size: 12px; fill: rgb(42, 63, 95); fill-opacity: 1; white-space: pre;">10 Day MA</text><g class="layers" style="opacity: 1;"><g class="legendfill"/><g class="legendlines"><path class="js-line" d="M5,0h30" style="fill: none; stroke: rgb(0, 204, 150); stroke-opacity: 1; stroke-width: 2px;"/></g><g class="legendsymbols"><g class="legendpoints"/></g></g><rect class="legendtoggle" pointer-events="all" x="0" y="-9.5" width="107.125" height="19" style="cursor: pointer; fill: rgb(0, 0, 0); fill-opacity: 0;"/></g><g class="traces" style="opacity: 1;" transform="translate(0, 71.5)"><text class="legendtext user-select-none" text-anchor="start" x="40" y="4.680000000000001" style="font-family: 'Open Sans', verdana, arial, sans-serif; font-size: 12px; fill: rgb(42, 63, 95); fill-opacity: 1; white-space: pre;">20 Day MA</text><g class="layers" style="opacity: 1;"><g class="legendfill"/><g class="legendlines"><path class="js-line" d="M5,0h30" style="fill: none; stroke: rgb(171, 99, 250); stroke-opacity: 1; stroke-width: 2px;"/></g><g class="legendsymbols"><g class="legendpoints"/></g></g><rect class="legendtoggle" pointer-events="all" x="0" y="-9.5" width="107.125" height="19" style="cursor: pointer; fill: rgb(0, 0, 0); fill-opacity: 0;"/></g><g class="traces" style="opacity: 1;" transform="translate(0, 90.5)"><text class="legendtext user-select-none" text-anchor="start" x="40" y="4.680000000000001" style="font-family: 'Open Sans', verdana, arial, sans-serif; font-size: 12px; fill: rgb(42, 63, 95); fill-opacity: 1; white-space: pre;">50 Day MA</text><g class="layers" style="opacity: 1;"><g class="legendfill"/><g class="legendlines"><path class="js-line" d="M5,0h30" style="fill: none; stroke: rgb(255, 161, 90); stroke-opacity: 1; stroke-width: 2px;"/></g><g class="legendsymbols"><g class="legendpoints"/></g></g><rect class="legendtoggle" pointer-events="all" x="0" y="-9.5" width="107.125" height="19" style="cursor: pointer; fill: rgb(0, 0, 0); fill-opacity: 0;"/></g><g class="traces" style="opacity: 1;" transform="translate(0, 109.5)"><text class="legendtext user-select-none" text-anchor="start" x="40" y="4.680000000000001" style="font-family: 'Open Sans', verdana, arial, sans-serif; font-size: 12px; fill: rgb(42, 63, 95); fill-opacity: 1; white-space: pre;">100 Day MA</text><g class="layers" style="opacity: 1;"><g class="legendfill"/><g class="legendlines"><path class="js-line" d="M5,0h30" style="fill: none; stroke: rgb(25, 211, 243); stroke-opacity: 1; stroke-width: 2px;"/></g><g class="legendsymbols"><g class="legendpoints"/></g></g><rect class="legendtoggle" pointer-events="all" x="0" y="-9.5" width="107.125" height="19" style="cursor: pointer; fill: rgb(0, 0, 0); fill-opacity: 0;"/></g><g class="traces" style="opacity: 1;" transform="translate(0, 128.5)"><text class="legendtext user-select-none" text-anchor="start" x="40" y="4.680000000000001" style="font-family: 'Open Sans', verdana, arial, sans-serif; font-size: 12px; fill: rgb(42, 63, 95); fill-opacity: 1; white-space: pre;">200 Day MA</text><g class="layers" style="opacity: 1;"><g class="legendfill"/><g class="legendlines"><path class="js-line" d="M5,0h30" style="fill: none; stroke: rgb(255, 102, 146); stroke-opacity: 1; stroke-width: 2px;"/></g><g class="legendsymbols"><g class="legendpoints"/></g></g><rect class="legendtoggle" pointer-events="all" x="0" y="-9.5" width="107.125" height="19" style="cursor: pointer; fill: rgb(0, 0, 0); fill-opacity: 0;"/></g></g></g><rect class="scrollbar" rx="20" ry="3" width="0" height="0" style="fill: rgb(128, 139, 164); fill-opacity: 1;" x="0" y="0"/></g><g class="g-gtitle"><text class="gtitle" x="35" y="50" text-anchor="start" dy="0em" style="font-family: 'Open Sans', verdana, arial, sans-serif; font-size: 17px; fill: rgb(42, 63, 95); opacity: 1; font-weight: normal; white-space: pre;">BTC-SMA</text></g><g class="g-xtitle"><text class="xtitle" x="322.5" y="461.8" text-anchor="middle" style="font-family: 'Open Sans', verdana, arial, sans-serif; font-size: 14px; fill: rgb(42, 63, 95); opacity: 1; font-weight: normal; white-space: pre;">Time</text></g><g class="g-ytitle"><text class="ytitle" transform="rotate(-90,26.746875000000003,260)" x="26.746875000000003" y="260" text-anchor="middle" style="font-family: 'Open Sans', verdana, arial, sans-serif; font-size: 14px; fill: rgb(42, 63, 95); opacity: 1; font-weight: normal; white-space: pre;">Price</text></g></g></svg>